<?xml version="1.0" encoding="UTF-8" standalone="no"?>
<svg width="222px" height="60px" viewBox="0 0 222 60" version="1.1" xmlns="http://www.w3.org/2000/svg" xmlns:xlink="http://www.w3.org/1999/xlink" xmlns:sketch="http://www.bohemiancoding.com/sketch/ns">
    <!-- Generator: Sketch 3.3.3 (12072) - http://www.bohemiancoding.com/sketch -->
    <title>foxfire-logo-footer-60h</title>
    <desc>Created with Sketch.</desc>
    <defs></defs>
    <g id="Page-1" stroke="none" stroke-width="1" fill="none" fill-rule="evenodd" sketch:type="MSPage">
        <g id="Desktop-HD" sketch:type="MSArtboardGroup" transform="translate(-399.000000, -200.000000)">
            <g id="foxfire-logo-footer-60h" sketch:type="MSLayerGroup" transform="translate(399.000000, 200.000000)">
                <g id="fox" sketch:type="MSShapeGroup">
                    <path d="M50.2261765,31.0385294 L50.2261765,4.78279412 L45.6785294,2.15691176 L41.1304412,4.78279412 L36.5832353,7.40735294 L32.0351471,10.0336765 L22.9402941,10.0336765 L18.3922059,7.40735294 L13.845,4.78279412 L9.29691176,2.15691176 L4.74970588,4.78279412 L4.74970588,36.2894118 L0.201617647,38.9144118 L9.29691176,44.1652941 L13.845,46.7920588 L18.3922059,49.4166176 L18.3922059,54.6675 L22.9402941,57.2942647 L27.4879412,59.9188235 L32.0351471,57.2942647 L36.5832353,54.6675 L36.5832353,49.4166176 L41.1304412,46.7920588 L45.6785294,44.1652941 L50.2261765,41.5402941 L54.7738235,38.9144118 L50.2261765,36.2894118 L50.2261765,31.0385294" id="Fill-3" fill="#000000"></path>
                    <path d="M50.2261765,34.4797059 L50.2261765,2.97308824 L45.6785294,0.346764706 L41.1304412,2.97308824 L36.5832353,5.59808824 L32.0351471,8.22441176 L22.9402941,8.22441176 L18.3922059,5.59808824 L13.845,2.97308824 L9.29691176,0.346764706 L4.74970588,2.97308824 L4.74970588,34.4797059 L0.201617647,37.1047059 L4.74970588,39.7310294 L18.3922059,47.6069118 L18.3922059,52.8582353 L22.9402941,55.4845588 L27.4879412,58.1095588 L32.0351471,55.4845588 L36.5832353,52.8582353 L36.5832353,47.6069118 L50.2261765,39.7310294 L54.7738235,37.1047059 L50.2261765,34.4797059" id="Fill-11" fill="#E5661F"></path>
                    <path d="M9.29691176,37.1047059 L0.201617647,37.1047059 L4.74970588,39.7310294 L18.3922059,47.6069118 L18.3922059,42.3560294 L13.845,39.7310294 L9.29691176,37.1047059" id="Fill-12" fill="#E9B38F"></path>
                    <path d="M22.9402941,55.4845588 L27.4879412,58.1095588 L32.0351471,55.4845588 L27.4879412,52.8582353 L22.9402941,55.4845588" id="Fill-13" fill="#E9B38F"></path>
                    <path d="M45.6785294,37.1047059 L41.1304412,39.7310294 L36.5832353,42.3560294 L36.5832353,47.6069118 L50.2261765,39.7310294 L54.7738235,37.1047059 L45.6785294,37.1047059" id="Fill-14" fill="#E9B38F"></path>
                    <path d="M9.29691176,10.8489706 L9.29691176,5.59808824 L13.845,8.22441176 L18.3922059,10.8489706 L22.9402941,8.22441176 L18.3922059,5.59808824 L13.845,2.97308824 L9.29691176,0.346764706 L4.74970588,2.97308824 L4.74970588,18.7261765 L9.29691176,16.1002941 L9.29691176,10.8489706" id="Fill-15" fill="#D15518"></path>
                    <path d="M18.3922059,31.8538235 L13.845,29.2283824 L13.845,23.9779412 L9.29691176,21.3516176 L9.29691176,31.8538235 L4.74970588,34.4797059 L9.29691176,37.1047059 L18.3922059,37.1047059 L22.9402941,39.7310294 L22.9402941,29.2283824 L18.3922059,26.6025 L18.3922059,31.8538235" id="Fill-16" fill="#D15518"></path>
                    <path d="M41.1304412,2.97308824 L36.5832353,5.59808824 L32.0351471,8.22441176 L36.5832353,10.8489706 L41.1304412,8.22441176 L45.6785294,5.59808824 L45.6785294,16.1002941 L50.2261765,18.7261765 L50.2261765,2.97308824 L45.6785294,0.346764706 L41.1304412,2.97308824" id="Fill-17" fill="#D15518"></path>
                    <path d="M45.6785294,26.6025 L45.6785294,21.3516176 L41.1304412,23.9779412 L41.1304412,29.2283824 L36.5832353,31.8538235 L36.5832353,26.6025 L32.0351471,29.2283824 L32.0351471,39.7310294 L36.5832353,37.1047059 L45.6785294,37.1047059 L50.2261765,34.4797059 L45.6785294,31.8538235 L45.6785294,26.6025" id="Fill-18" fill="#D15518"></path>
                    <path d="M18.3922059,10.8489706 L13.845,8.22441176 L9.29691176,5.59808824 L9.29691176,16.1002941 L13.845,13.4752941 L18.3922059,10.8489706" id="Fill-19" fill="#FCD8B2"></path>
                    <path d="M22.9402941,44.9819118 L22.9402941,39.7310294 L18.3922059,37.1047059 L9.29691176,37.1047059 L13.845,39.7310294 L18.3922059,42.3560294 L18.3922059,52.8582353 L22.9402941,55.4845588 L27.4879412,52.8582353 L22.9402941,50.2332353 L22.9402941,44.9819118" id="Fill-20" fill="#FCD8B2"></path>
                    <path d="M36.5832353,10.8489706 L41.1304412,13.4752941 L45.6785294,16.1002941 L45.6785294,5.59808824 L41.1304412,8.22441176 L36.5832353,10.8489706" id="Fill-21" fill="#FCD8B2"></path>
                    <path d="M36.5832353,37.1047059 L32.0351471,39.7310294 L32.0351471,50.2332353 L27.4879412,52.8582353 L32.0351471,55.4845588 L36.5832353,52.8582353 L36.5832353,42.3560294 L41.1304412,39.7310294 L45.6785294,37.1047059 L36.5832353,37.1047059" id="Fill-22" fill="#FCD8B2"></path>
                    <path d="M13.845,29.2283824 L18.3922059,31.8538235 L18.3922059,26.6025 L13.845,23.9779412 L13.845,29.2283824" id="Fill-23" fill="#000000"></path>
                    <path d="M22.9402941,47.6069118 L22.9402941,50.2332353 L27.4879412,52.8582353 L32.0351471,50.2332353 L32.0351471,47.6069118 L22.9402941,47.6069118" id="Fill-24" fill="#000000"></path>
                    <path d="M36.5832353,31.8538235 L41.1304412,29.2283824 L41.1304412,23.9779412 L36.5832353,26.6025 L36.5832353,31.8538235" id="Fill-25" fill="#000000"></path>
                    <path d="M23.2980882,14.5244118 L23.2980882,16.9486765 L27.4883824,19.3702941 L31.6773529,16.9486765 L31.6773529,14.5244118 L27.4883824,14.5314706 L23.2980882,14.5244118" id="Fill-26" fill="#D15518"></path>
                    <path d="M27.4883824,23.7061765 L30.4817647,21.9798529 L27.4883824,20.2522059 L24.4945588,21.9798529 L27.4883824,23.7061765" id="Fill-27" fill="#D15518"></path>
                </g>
                <path d="M84.376,9.836 L84.376,14.768 L72.712,14.768 L72.712,20.204 L83.8,20.204 L83.8,25.136 L72.712,25.136 L72.712,35 L67.096,35 L67.096,9.836 L84.376,9.836 Z M106.228,16.532 C104.787993,14.9479921 103.018011,14.156 100.918,14.156 C98.8179895,14.156 97.0480072,14.9479921 95.608,16.532 C94.1679928,18.1160079 93.448,20.0299888 93.448,22.274 C93.448,24.5180112 94.1679928,26.4259921 95.608,27.998 C97.0480072,29.5700079 98.8179895,30.356 100.918,30.356 C103.018011,30.356 104.787993,29.5700079 106.228,27.998 C107.668007,26.4259921 108.388,24.5180112 108.388,22.274 C108.388,20.0299888 107.668007,18.1160079 106.228,16.532 L106.228,16.532 Z M100.9,35.252 C97.1799814,35.252 94.0480127,34.0100124 91.504,31.526 C88.9599873,29.0419876 87.688,25.9520185 87.688,22.256 C87.688,18.5599815 88.9599873,15.4700124 91.504,12.986 C94.0480127,10.5019876 97.1799814,9.26 100.9,9.26 C104.620019,9.26 107.751987,10.5019876 110.296,12.986 C112.840013,15.4700124 114.112,18.5599815 114.112,22.256 C114.112,25.9520185 112.840013,29.0419876 110.296,31.526 C107.751987,34.0100124 104.620019,35.252 100.9,35.252 L100.9,35.252 Z M132.04,9.836 L138.808,9.836 L130.96,21.968 L139.456,35 L132.616,35 L127.252,26.72 L121.924,35 L115.156,35 L123.616,22.112 L115.732,9.836 L122.464,9.836 L127.252,17.288 L132.04,9.836 Z M160.192,9.836 L160.192,14.768 L148.528,14.768 L148.528,20.204 L159.616,20.204 L159.616,25.136 L148.528,25.136 L148.528,35 L142.912,35 L142.912,9.836 L160.192,9.836 Z M164.944,9.836 L170.56,9.836 L170.56,35 L164.944,35 L164.944,9.836 Z M197.164,18.188 C197.164,22.2200202 195.568016,24.8239941 192.376,26 L198.748,35 L191.836,35 L186.256,26.972 L182.368,26.972 L182.368,35 L176.752,35 L176.752,9.836 L186.292,9.836 C190.20402,9.836 192.993992,10.4959934 194.662,11.816 C196.330008,13.1360066 197.164,15.2599854 197.164,18.188 L197.164,18.188 Z M190.396,21.176 C191.092003,20.5519969 191.44,19.5620068 191.44,18.206 C191.44,16.8499932 191.080004,15.9200025 190.36,15.416 C189.639996,14.9119975 188.380009,14.66 186.58,14.66 L182.368,14.66 L182.368,22.112 L186.472,22.112 C188.39201,22.112 189.699997,21.8000031 190.396,21.176 L190.396,21.176 Z M221.068,9.836 L221.068,14.84 L208.54,14.84 L208.54,20.024 L219.808,20.024 L219.808,24.812 L208.54,24.812 L208.54,30.032 L221.464,30.032 L221.464,35 L202.924,35 L202.924,9.836 L221.068,9.836 Z" id="FOXFIRE" fill="#FFFFFF" sketch:type="MSShapeGroup"></path>
                <path d="M68.9003906,41.46875 C69.1347668,41.46875 69.3632801,41.4628907 69.5859375,41.4511719 C69.8085949,41.4394531 70.0488268,41.4248048 70.3066406,41.4072266 C70.5644544,41.3896483 70.7753898,41.3750001 70.9394531,41.3632812 C70.9628907,41.4101565 70.9716797,41.5068352 70.9658203,41.6533203 C70.9599609,41.7998054 70.9394533,41.8730469 70.9042969,41.8730469 C70.7871088,41.8730469 70.5761734,41.9140621 70.2714844,41.9960938 C69.9667954,42.0781254 69.8027345,42.1601558 69.7792969,42.2421875 C69.6738276,42.6523458 69.6210938,43.1972622 69.6210938,43.8769531 L69.6210938,46.7421875 L69.7441406,46.8476562 L69.8671875,46.8476562 C70.2421894,46.8476562 70.5820297,46.6777361 70.8867188,46.3378906 C72.2578194,44.8027267 73.2656218,43.6132855 73.9101562,42.7695312 C74.1914077,42.4296858 74.3320312,42.2070318 74.3320312,42.1015625 C74.3320312,41.9023428 73.9980502,41.8027344 73.3300781,41.8027344 C73.2832029,41.8027344 73.2597656,41.7500005 73.2597656,41.6445312 C73.2597656,41.539062 73.2714843,41.4453129 73.2949219,41.3632812 C73.4472664,41.3750001 73.6464831,41.3896483 73.8925781,41.4072266 C74.1386731,41.4248048 74.3671864,41.4394531 74.578125,41.4511719 C74.7890636,41.4628907 74.9882803,41.46875 75.1757812,41.46875 C75.4687515,41.46875 75.8027325,41.4541017 76.1777344,41.4248047 C76.5527362,41.3955077 76.8105462,41.3750001 76.9511719,41.3632812 C76.9746095,41.4101565 76.9833985,41.4951166 76.9775391,41.6181641 C76.9716797,41.7412116 76.9511721,41.8027344 76.9160156,41.8027344 C76.2011683,41.884766 75.6621112,42.1308573 75.2988281,42.5410156 L71.765625,46.6542969 C71.6718745,46.7597662 71.7128897,46.9179677 71.8886719,47.1289062 L76.125,51.7871094 C76.3125009,51.9863291 76.5585922,52.15039 76.8632812,52.2792969 C77.1679703,52.4082038 77.4052726,52.4843749 77.5751953,52.5078125 C77.745118,52.5312501 77.882812,52.5429688 77.9882812,52.5429688 C78.0468753,52.5429688 78.0761719,52.6484364 78.0761719,52.859375 C78.0761719,52.9414067 78.0644532,53.0058591 78.0410156,53.0527344 C76.8691348,52.9941403 76.1425795,52.9648438 75.8613281,52.9648438 C75.5683579,52.9648438 75.3046887,52.9707031 75.0703125,52.9824219 C74.8359363,52.9941407 74.5722671,53.0058593 74.2792969,53.0175781 C73.9863267,53.0292969 73.7226574,53.0410156 73.4882812,53.0527344 C73.441406,53.0058591 73.4179688,52.9091804 73.4179688,52.7626953 C73.4179688,52.6162102 73.441406,52.5429688 73.4882812,52.5429688 C73.628907,52.5429688 73.7900382,52.5195315 73.9716797,52.4726562 C74.1533212,52.425781 74.2441406,52.3554692 74.2441406,52.2617188 C74.2441406,51.8867169 72.9140758,50.333998 70.2539062,47.6035156 C70.207031,47.5566404 70.0371108,47.5332031 69.7441406,47.5332031 C69.662109,47.5332031 69.6210938,47.5800777 69.6210938,47.6738281 L69.6210938,50.5566406 C69.6210938,51.2363315 69.6738276,51.7812479 69.7792969,52.1914062 C69.8027345,52.2734379 69.9667954,52.3525387 70.2714844,52.4287109 C70.5761734,52.5048832 70.7871088,52.5429688 70.9042969,52.5429688 C70.9394533,52.5429688 70.9599609,52.6132805 70.9658203,52.7539062 C70.9716797,52.894532 70.9628907,52.9941403 70.9394531,53.0527344 C69.7675723,52.9941403 69.0878916,52.9648438 68.9003906,52.9648438 C68.8417966,52.9648438 68.1386786,52.9941403 66.7910156,53.0527344 C66.7441404,53.0058591 66.7207031,52.9179694 66.7207031,52.7890625 C66.7207031,52.6249992 66.7441404,52.5429688 66.7910156,52.5429688 C66.9433601,52.5429688 67.1689438,52.5078129 67.4677734,52.4375 C67.7666031,52.3671871 67.9335936,52.2851567 67.96875,52.1914062 C68.0507817,51.8749984 68.0917969,51.3535193 68.0917969,50.6269531 L68.0917969,43.8066406 C68.0917969,43.0800745 68.0507817,42.5585953 67.96875,42.2421875 C67.9335936,42.148437 67.7666031,42.0634769 67.4677734,41.9873047 C67.1689438,41.9111324 66.9433601,41.8730469 66.7910156,41.8730469 C66.7441404,41.8730469 66.7207031,41.7968758 66.7207031,41.6445312 C66.7207031,41.5039055 66.7441404,41.4101565 66.7910156,41.3632812 C66.9433601,41.3750001 67.2539039,41.3955077 67.7226562,41.4248047 C68.1914086,41.4541017 68.5839828,41.46875 68.9003906,41.46875 L68.9003906,41.46875 Z M82.1367188,45.9863281 C81.5273407,45.9863281 81.061525,46.2470677 80.7392578,46.7685547 C80.4169906,47.2900417 80.2558594,47.7207014 80.2558594,48.0605469 C80.2558594,48.1425785 80.2910153,48.1835938 80.3613281,48.1835938 L83.7890625,48.1835938 C83.8476565,48.1835938 83.8769531,48.1250006 83.8769531,48.0078125 C83.8769531,47.6328106 83.7187516,47.2021509 83.4023438,46.7158203 C83.0859359,46.2294898 82.6640651,45.9863281 82.1367188,45.9863281 L82.1367188,45.9863281 Z M82.3125,45.3359375 C82.8515652,45.3359375 83.3261698,45.4384755 83.7363281,45.6435547 C84.1464864,45.8486338 84.4599599,46.1123031 84.6767578,46.4345703 C84.8935558,46.7568375 85.0517573,47.0849593 85.1513672,47.4189453 C85.2509771,47.7529314 85.3007812,48.0839827 85.3007812,48.4121094 C85.3007812,48.6464855 85.2656254,48.7900388 85.1953125,48.8427734 C85.1249996,48.8955081 84.9902354,48.921875 84.7910156,48.921875 L80.3613281,48.921875 C80.2675777,48.921875 80.2207031,48.9511716 80.2207031,49.0097656 C80.2207031,49.7480506 80.4433571,50.4277313 80.8886719,51.0488281 C81.3339866,51.669925 81.9785114,51.9804688 82.8222656,51.9804688 C83.0683606,51.9804688 83.3027333,51.9570315 83.5253906,51.9101562 C83.748048,51.863281 83.9384758,51.8076175 84.0966797,51.7431641 C84.2548836,51.6787106 84.3896479,51.6142581 84.5009766,51.5498047 C84.6123052,51.4853512 84.708984,51.4238284 84.7910156,51.3652344 L84.9140625,51.2773438 C84.9843754,51.2773438 85.0195312,51.3535149 85.0195312,51.5058594 C85.0195312,51.5996098 84.9843754,51.7050775 84.9140625,51.8222656 C84.6796863,52.1503923 84.3339867,52.4462877 83.8769531,52.7099609 C83.4199196,52.9736341 82.9218777,53.1054688 82.3828125,53.1054688 C81.4101514,53.1054688 80.5751988,52.7392615 79.8779297,52.0068359 C79.1806606,51.2744104 78.8320312,50.3808646 78.8320312,49.3261719 C78.8320312,48.095697 79.1630826,47.1230504 79.8251953,46.4082031 C80.487308,45.6933558 81.3164013,45.3359375 82.3125,45.3359375 L82.3125,45.3359375 Z M91.4003906,45.3007812 C92.2207072,45.3007812 92.7949202,45.5937471 93.1230469,46.1796875 C93.4511735,46.7656279 93.6152344,47.7148372 93.6152344,49.0273438 L93.6152344,50.6269531 C93.6152344,51.306644 93.6621089,51.8281232 93.7558594,52.1914062 C93.779297,52.2734379 93.9316392,52.3525387 94.2128906,52.4287109 C94.494142,52.5048832 94.6933588,52.5429688 94.8105469,52.5429688 C94.8457033,52.5429688 94.8691406,52.6132805 94.8808594,52.7539062 C94.8925782,52.894532 94.8867189,52.9941403 94.8632812,53.0527344 C93.6914004,52.9941403 93.0644535,52.9648438 92.9824219,52.9648438 C92.9589843,52.9648438 92.343756,52.9941403 91.1367188,53.0527344 C91.0898435,53.0058591 91.0664062,52.9091804 91.0664062,52.7626953 C91.0664062,52.6162102 91.0898435,52.5429688 91.1367188,52.5429688 C91.2773445,52.5429688 91.4736316,52.5048832 91.7255859,52.4287109 C91.9775403,52.3525387 92.1152343,52.2734379 92.1386719,52.1914062 C92.2207035,51.8515608 92.2617188,51.4414087 92.2617188,50.9609375 L92.2617188,49.203125 C92.2617188,48.1132758 92.1210952,47.3691426 91.8398438,46.9707031 C91.5585923,46.5722636 91.1015657,46.3730469 90.46875,46.3730469 C90.0937481,46.3730469 89.7334002,46.5107408 89.3876953,46.7861328 C89.0419905,47.0615248 88.8691406,47.3105458 88.8691406,47.5332031 L88.8691406,50.6269531 C88.8691406,51.306644 88.9160152,51.8281232 89.0097656,52.1914062 C89.0332032,52.2734379 89.1855455,52.3525387 89.4667969,52.4287109 C89.7480483,52.5048832 89.947265,52.5429688 90.0644531,52.5429688 C90.0996096,52.5429688 90.1230468,52.6132805 90.1347656,52.7539062 C90.1464844,52.894532 90.1406251,52.9941403 90.1171875,53.0527344 C88.9453066,52.9941403 88.3183598,52.9648438 88.2363281,52.9648438 C88.1660153,52.9648438 87.5273498,52.9941403 86.3203125,53.0527344 C86.2734373,53.0058591 86.25,52.9091804 86.25,52.7626953 C86.25,52.6162102 86.2734373,52.5429688 86.3203125,52.5429688 C86.4609382,52.5429688 86.6689439,52.5048832 86.9443359,52.4287109 C87.2197279,52.3525387 87.3691405,52.2734379 87.3925781,52.1914062 C87.4746098,51.8515608 87.515625,51.4414087 87.515625,50.9609375 L87.515625,47.6386719 C87.515625,47.1816383 87.4335946,46.8652353 87.2695312,46.6894531 C87.1523432,46.5488274 87.0087899,46.4521487 86.8388672,46.3994141 C86.6689445,46.3466794 86.5283209,46.3203125 86.4169922,46.3203125 C86.3056635,46.3203125 86.25,46.3085939 86.25,46.2851562 C86.25,46.0039048 86.2851559,45.8574219 86.3554688,45.8457031 C87.5976625,45.6582022 88.4062481,45.50586 88.78125,45.3886719 C88.7929688,45.3886719 88.8105468,45.3857422 88.8339844,45.3798828 C88.857422,45.3740234 88.8691406,45.3710938 88.8691406,45.3710938 C88.9160159,45.3710938 88.9453124,45.4208979 88.9570312,45.5205078 C88.9687501,45.6201177 88.9687501,45.6933591 88.9570312,45.7402344 C88.910156,46.068361 88.8867188,46.3027337 88.8867188,46.4433594 C88.8867188,46.4902346 88.8984374,46.5136719 88.921875,46.5136719 C88.9335938,46.5136719 88.9511718,46.5019532 88.9746094,46.4785156 C89.244142,46.1972642 89.6103492,45.9306653 90.0732422,45.6787109 C90.5361351,45.4267566 90.9785135,45.3007812 91.4003906,45.3007812 L91.4003906,45.3007812 Z M100.945312,45.3007812 C101.765629,45.3007812 102.339842,45.5937471 102.667969,46.1796875 C102.996095,46.7656279 103.160156,47.7148372 103.160156,49.0273438 L103.160156,50.6269531 C103.160156,51.306644 103.207031,51.8281232 103.300781,52.1914062 C103.324219,52.2734379 103.476561,52.3525387 103.757812,52.4287109 C104.039064,52.5048832 104.238281,52.5429688 104.355469,52.5429688 C104.390625,52.5429688 104.414062,52.6132805 104.425781,52.7539062 C104.4375,52.894532 104.431641,52.9941403 104.408203,53.0527344 C103.236322,52.9941403 102.609375,52.9648438 102.527344,52.9648438 C102.503906,52.9648438 101.888678,52.9941403 100.681641,53.0527344 C100.634765,53.0058591 100.611328,52.9091804 100.611328,52.7626953 C100.611328,52.6162102 100.634765,52.5429688 100.681641,52.5429688 C100.822266,52.5429688 101.018553,52.5048832 101.270508,52.4287109 C101.522462,52.3525387 101.660156,52.2734379 101.683594,52.1914062 C101.765625,51.8515608 101.806641,51.4414087 101.806641,50.9609375 L101.806641,49.203125 C101.806641,48.1132758 101.666017,47.3691426 101.384766,46.9707031 C101.103514,46.5722636 100.646488,46.3730469 100.013672,46.3730469 C99.63867,46.3730469 99.278322,46.5107408 98.9326172,46.7861328 C98.5869123,47.0615248 98.4140625,47.3105458 98.4140625,47.5332031 L98.4140625,50.6269531 C98.4140625,51.306644 98.460937,51.8281232 98.5546875,52.1914062 C98.5781251,52.2734379 98.7304673,52.3525387 99.0117188,52.4287109 C99.2929702,52.5048832 99.4921869,52.5429688 99.609375,52.5429688 C99.6445314,52.5429688 99.6679687,52.6132805 99.6796875,52.7539062 C99.6914063,52.894532 99.685547,52.9941403 99.6621094,53.0527344 C98.4902285,52.9941403 97.8632817,52.9648438 97.78125,52.9648438 C97.7109371,52.9648438 97.0722717,52.9941403 95.8652344,53.0527344 C95.8183591,53.0058591 95.7949219,52.9091804 95.7949219,52.7626953 C95.7949219,52.6162102 95.8183591,52.5429688 95.8652344,52.5429688 C96.0058601,52.5429688 96.2138658,52.5048832 96.4892578,52.4287109 C96.7646498,52.3525387 96.9140624,52.2734379 96.9375,52.1914062 C97.0195317,51.8515608 97.0605469,51.4414087 97.0605469,50.9609375 L97.0605469,47.6386719 C97.0605469,47.1816383 96.9785164,46.8652353 96.8144531,46.6894531 C96.697265,46.5488274 96.5537118,46.4521487 96.3837891,46.3994141 C96.2138663,46.3466794 96.0732427,46.3203125 95.9619141,46.3203125 C95.8505854,46.3203125 95.7949219,46.3085939 95.7949219,46.2851562 C95.7949219,46.0039048 95.8300778,45.8574219 95.9003906,45.8457031 C97.1425843,45.6582022 97.95117,45.50586 98.3261719,45.3886719 C98.3378907,45.3886719 98.3554686,45.3857422 98.3789062,45.3798828 C98.4023439,45.3740234 98.4140625,45.3710938 98.4140625,45.3710938 C98.4609377,45.3710938 98.4902343,45.4208979 98.5019531,45.5205078 C98.5136719,45.6201177 98.5136719,45.6933591 98.5019531,45.7402344 C98.4550779,46.068361 98.4316406,46.3027337 98.4316406,46.4433594 C98.4316406,46.4902346 98.4433593,46.5136719 98.4667969,46.5136719 C98.4785157,46.5136719 98.4960936,46.5019532 98.5195312,46.4785156 C98.7890638,46.1972642 99.1552711,45.9306653 99.6181641,45.6787109 C100.081057,45.4267566 100.523435,45.3007812 100.945312,45.3007812 L100.945312,45.3007812 Z M108.785156,45.9863281 C108.175778,45.9863281 107.709963,46.2470677 107.387695,46.7685547 C107.065428,47.2900417 106.904297,47.7207014 106.904297,48.0605469 C106.904297,48.1425785 106.939453,48.1835938 107.009766,48.1835938 L110.4375,48.1835938 C110.496094,48.1835938 110.525391,48.1250006 110.525391,48.0078125 C110.525391,47.6328106 110.367189,47.2021509 110.050781,46.7158203 C109.734373,46.2294898 109.312503,45.9863281 108.785156,45.9863281 L108.785156,45.9863281 Z M108.960938,45.3359375 C109.500003,45.3359375 109.974607,45.4384755 110.384766,45.6435547 C110.794924,45.8486338 111.108397,46.1123031 111.325195,46.4345703 C111.541993,46.7568375 111.700195,47.0849593 111.799805,47.4189453 C111.899415,47.7529314 111.949219,48.0839827 111.949219,48.4121094 C111.949219,48.6464855 111.914063,48.7900388 111.84375,48.8427734 C111.773437,48.8955081 111.638673,48.921875 111.439453,48.921875 L107.009766,48.921875 C106.916015,48.921875 106.869141,48.9511716 106.869141,49.0097656 C106.869141,49.7480506 107.091795,50.4277313 107.537109,51.0488281 C107.982424,51.669925 108.626949,51.9804688 109.470703,51.9804688 C109.716798,51.9804688 109.951171,51.9570315 110.173828,51.9101562 C110.396485,51.863281 110.586913,51.8076175 110.745117,51.7431641 C110.903321,51.6787106 111.038085,51.6142581 111.149414,51.5498047 C111.260743,51.4853512 111.357421,51.4238284 111.439453,51.3652344 L111.5625,51.2773438 C111.632813,51.2773438 111.667969,51.3535149 111.667969,51.5058594 C111.667969,51.5996098 111.632813,51.7050775 111.5625,51.8222656 C111.328124,52.1503923 110.982424,52.4462877 110.525391,52.7099609 C110.068357,52.9736341 109.570315,53.1054688 109.03125,53.1054688 C108.058589,53.1054688 107.223636,52.7392615 106.526367,52.0068359 C105.829098,51.2744104 105.480469,50.3808646 105.480469,49.3261719 C105.480469,48.095697 105.81152,47.1230504 106.473633,46.4082031 C107.135745,45.6933558 107.964839,45.3359375 108.960938,45.3359375 L108.960938,45.3359375 Z M113.917969,50.9609375 L113.917969,43.3496094 C113.917969,42.9511699 113.882813,42.5761736 113.8125,42.2246094 C113.753906,42.0371084 113.455081,41.9433594 112.916016,41.9433594 L112.757812,41.9433594 C112.6875,41.9433594 112.652344,41.8789069 112.652344,41.75 C112.652344,41.5624991 112.6875,41.46875 112.757812,41.46875 C113.109377,41.4335936 113.434569,41.386719 113.733398,41.328125 C114.032228,41.269531 114.266601,41.2109378 114.436523,41.1523438 C114.606446,41.0937497 114.749999,41.0380862 114.867188,40.9853516 C114.984376,40.9326169 115.072265,40.8886721 115.130859,40.8535156 L115.201172,40.8007812 L115.236328,40.8007812 C115.283203,40.8007812 115.330078,40.8330075 115.376953,40.8974609 C115.423828,40.9619144 115.453125,41.0234372 115.464844,41.0820312 C115.335937,41.4570331 115.271484,41.9667937 115.271484,42.6113281 L115.271484,50.6269531 C115.271484,51.306644 115.318359,51.8281232 115.412109,52.1914062 C115.435547,52.2734379 115.587889,52.3525387 115.869141,52.4287109 C116.150392,52.5048832 116.349609,52.5429688 116.466797,52.5429688 C116.501953,52.5429688 116.525391,52.6132805 116.537109,52.7539062 C116.548828,52.894532 116.542969,52.9941403 116.519531,53.0527344 C115.34765,52.9941403 114.720704,52.9648438 114.638672,52.9648438 C114.568359,52.9648438 113.929694,52.9941403 112.722656,53.0527344 C112.675781,53.0058591 112.652344,52.9091804 112.652344,52.7626953 C112.652344,52.6162102 112.675781,52.5429688 112.722656,52.5429688 C112.863282,52.5429688 113.071288,52.5048832 113.34668,52.4287109 C113.622072,52.3525387 113.771484,52.2734379 113.794922,52.1914062 C113.876954,51.8515608 113.917969,51.4414087 113.917969,50.9609375 L113.917969,50.9609375 Z" id="Kennel" fill="#FFFFFF" sketch:type="MSShapeGroup"></path>
            </g>
        </g>
    </g>
</svg>