<?xml version="1.0" encoding="UTF-8" standalone="no"?>
<svg width="221px" height="60px" viewBox="0 0 221 60" version="1.1" xmlns="http://www.w3.org/2000/svg" xmlns:xlink="http://www.w3.org/1999/xlink" xmlns:sketch="http://www.bohemiancoding.com/sketch/ns">
    <!-- Generator: Sketch 3.3.2 (12043) - http://www.bohemiancoding.com/sketch -->
    <title>foxfire-logo-footer-60h</title>
    <desc>Created with Sketch.</desc>
    <defs></defs>
    <g id="Page-1" stroke="none" stroke-width="1" fill="none" fill-rule="evenodd" sketch:type="MSPage">
        <g id="Desktop-HD" sketch:type="MSArtboardGroup" transform="translate(-99.000000, -200.000000)">
            <g id="foxfire-logo-footer-60h" sketch:type="MSLayerGroup" transform="translate(99.000000, 200.000000)">
                <g id="fox" sketch:type="MSShapeGroup">
                    <path d="M50.2261765,31.0385294 L50.2261765,4.78279412 L45.6785294,2.15691176 L41.1304412,4.78279412 L36.5832353,7.40735294 L32.0351471,10.0336765 L22.9402941,10.0336765 L18.3922059,7.40735294 L13.845,4.78279412 L9.29691176,2.15691176 L4.74970588,4.78279412 L4.74970588,36.2894118 L0.201617647,38.9144118 L9.29691176,44.1652941 L13.845,46.7920588 L18.3922059,49.4166176 L18.3922059,54.6675 L22.9402941,57.2942647 L27.4879412,59.9188235 L32.0351471,57.2942647 L36.5832353,54.6675 L36.5832353,49.4166176 L41.1304412,46.7920588 L45.6785294,44.1652941 L50.2261765,41.5402941 L54.7738235,38.9144118 L50.2261765,36.2894118 L50.2261765,31.0385294" id="Fill-3" fill="#000000"></path>
                    <path d="M50.2261765,34.4797059 L50.2261765,2.97308824 L45.6785294,0.346764706 L41.1304412,2.97308824 L36.5832353,5.59808824 L32.0351471,8.22441176 L22.9402941,8.22441176 L18.3922059,5.59808824 L13.845,2.97308824 L9.29691176,0.346764706 L4.74970588,2.97308824 L4.74970588,34.4797059 L0.201617647,37.1047059 L4.74970588,39.7310294 L18.3922059,47.6069118 L18.3922059,52.8582353 L22.9402941,55.4845588 L27.4879412,58.1095588 L32.0351471,55.4845588 L36.5832353,52.8582353 L36.5832353,47.6069118 L50.2261765,39.7310294 L54.7738235,37.1047059 L50.2261765,34.4797059" id="Fill-11" fill="#E5661F"></path>
                    <path d="M9.29691176,37.1047059 L0.201617647,37.1047059 L4.74970588,39.7310294 L18.3922059,47.6069118 L18.3922059,42.3560294 L13.845,39.7310294 L9.29691176,37.1047059" id="Fill-12" fill="#E9B38F"></path>
                    <path d="M22.9402941,55.4845588 L27.4879412,58.1095588 L32.0351471,55.4845588 L27.4879412,52.8582353 L22.9402941,55.4845588" id="Fill-13" fill="#E9B38F"></path>
                    <path d="M45.6785294,37.1047059 L41.1304412,39.7310294 L36.5832353,42.3560294 L36.5832353,47.6069118 L50.2261765,39.7310294 L54.7738235,37.1047059 L45.6785294,37.1047059" id="Fill-14" fill="#E9B38F"></path>
                    <path d="M9.29691176,10.8489706 L9.29691176,5.59808824 L13.845,8.22441176 L18.3922059,10.8489706 L22.9402941,8.22441176 L18.3922059,5.59808824 L13.845,2.97308824 L9.29691176,0.346764706 L4.74970588,2.97308824 L4.74970588,18.7261765 L9.29691176,16.1002941 L9.29691176,10.8489706" id="Fill-15" fill="#D15518"></path>
                    <path d="M18.3922059,31.8538235 L13.845,29.2283824 L13.845,23.9779412 L9.29691176,21.3516176 L9.29691176,31.8538235 L4.74970588,34.4797059 L9.29691176,37.1047059 L18.3922059,37.1047059 L22.9402941,39.7310294 L22.9402941,29.2283824 L18.3922059,26.6025 L18.3922059,31.8538235" id="Fill-16" fill="#D15518"></path>
                    <path d="M41.1304412,2.97308824 L36.5832353,5.59808824 L32.0351471,8.22441176 L36.5832353,10.8489706 L41.1304412,8.22441176 L45.6785294,5.59808824 L45.6785294,16.1002941 L50.2261765,18.7261765 L50.2261765,2.97308824 L45.6785294,0.346764706 L41.1304412,2.97308824" id="Fill-17" fill="#D15518"></path>
                    <path d="M45.6785294,26.6025 L45.6785294,21.3516176 L41.1304412,23.9779412 L41.1304412,29.2283824 L36.5832353,31.8538235 L36.5832353,26.6025 L32.0351471,29.2283824 L32.0351471,39.7310294 L36.5832353,37.1047059 L45.6785294,37.1047059 L50.2261765,34.4797059 L45.6785294,31.8538235 L45.6785294,26.6025" id="Fill-18" fill="#D15518"></path>
                    <path d="M18.3922059,10.8489706 L13.845,8.22441176 L9.29691176,5.59808824 L9.29691176,16.1002941 L13.845,13.4752941 L18.3922059,10.8489706" id="Fill-19" fill="#FCD8B2"></path>
                    <path d="M22.9402941,44.9819118 L22.9402941,39.7310294 L18.3922059,37.1047059 L9.29691176,37.1047059 L13.845,39.7310294 L18.3922059,42.3560294 L18.3922059,52.8582353 L22.9402941,55.4845588 L27.4879412,52.8582353 L22.9402941,50.2332353 L22.9402941,44.9819118" id="Fill-20" fill="#FCD8B2"></path>
                    <path d="M36.5832353,10.8489706 L41.1304412,13.4752941 L45.6785294,16.1002941 L45.6785294,5.59808824 L41.1304412,8.22441176 L36.5832353,10.8489706" id="Fill-21" fill="#FCD8B2"></path>
                    <path d="M36.5832353,37.1047059 L32.0351471,39.7310294 L32.0351471,50.2332353 L27.4879412,52.8582353 L32.0351471,55.4845588 L36.5832353,52.8582353 L36.5832353,42.3560294 L41.1304412,39.7310294 L45.6785294,37.1047059 L36.5832353,37.1047059" id="Fill-22" fill="#FCD8B2"></path>
                    <path d="M13.845,29.2283824 L18.3922059,31.8538235 L18.3922059,26.6025 L13.845,23.9779412 L13.845,29.2283824" id="Fill-23" fill="#000000"></path>
                    <path d="M22.9402941,47.6069118 L22.9402941,50.2332353 L27.4879412,52.8582353 L32.0351471,50.2332353 L32.0351471,47.6069118 L22.9402941,47.6069118" id="Fill-24" fill="#000000"></path>
                    <path d="M36.5832353,31.8538235 L41.1304412,29.2283824 L41.1304412,23.9779412 L36.5832353,26.6025 L36.5832353,31.8538235" id="Fill-25" fill="#000000"></path>
                    <path d="M23.2980882,14.5244118 L23.2980882,16.9486765 L27.4883824,19.3702941 L31.6773529,16.9486765 L31.6773529,14.5244118 L27.4883824,14.5314706 L23.2980882,14.5244118" id="Fill-26" fill="#D15518"></path>
                    <path d="M27.4883824,23.7061765 L30.4817647,21.9798529 L27.4883824,20.2522059 L24.4945588,21.9798529 L27.4883824,23.7061765" id="Fill-27" fill="#D15518"></path>
                </g>
                <text id="FOXFIRE" sketch:type="MSTextLayer" font-family="Montserrat" font-size="36" font-weight="bold" fill="#FFFFFF">
                    <tspan x="64" y="35">FOXFIRE</tspan>
                </text>
                <text id="Kennel" sketch:type="MSTextLayer" font-family="Crimson Text" font-size="18" font-weight="normal" fill="#FFFFFF">
                    <tspan x="66" y="53">Kennel</tspan>
                </text>
            </g>
        </g>
    </g>
</svg>